<?xml version="1.0" standalone="no"?>
<!DOCTYPE svg PUBLIC "-//W3C//DTD SVG 20010904//EN"
 "http://www.w3.org/TR/2001/REC-SVG-20010904/DTD/svg10.dtd">
<svg version="1.0" xmlns="http://www.w3.org/2000/svg"
 width="736.000000pt" height="552.000000pt" viewBox="0 0 736.000000 552.000000"
 preserveAspectRatio="xMidYMid meet">

<g transform="translate(0.000000,552.000000) scale(0.100000,-0.100000)"
fill="#000000" stroke="none">
<path d="M5171 4458 c0 -28 2 -30 9 -13 12 28 12 45 0 45 -5 0 -10 -15 -9 -32z"/>
<path d="M5230 4425 c-13 -14 -19 -25 -13 -25 12 0 48 38 41 45 -2 3 -15 -6
-28 -20z"/>
<path d="M5271 4369 c-13 -5 -22 -12 -19 -15 8 -8 58 7 58 17 0 11 -8 11 -39
-2z"/>
<path d="M5010 4286 c-37 -20 -750 -433 -853 -494 l-88 -52 -702 0 c-784 0
-743 3 -814 -71 -61 -64 -63 -81 -63 -501 l0 -380 -197 4 c-192 3 -199 2 -230
-20 -18 -13 -38 -40 -47 -65 -9 -23 -77 -271 -151 -552 -75 -280 -144 -536
-153 -568 -14 -54 -19 -60 -62 -82 -107 -54 -171 -157 -178 -287 l-5 -77 -96
-3 c-58 -2 -95 -7 -93 -13 4 -16 4814 -14 4820 3 3 9 -39 12 -187 12 l-191 0
0 198 0 197 90 95 c102 107 130 150 156 234 14 44 24 60 44 68 66 25 120 109
120 188 0 62 -17 106 -59 147 -20 20 -59 94 -110 210 -235 530 -562 1269 -661
1493 -62 140 -122 266 -134 279 -41 46 -109 63 -156 37z m120 -43 c20 -19 56
-86 111 -208 87 -196 658 -1486 719 -1627 l38 -86 -54 5 c-45 5 -62 1 -109
-22 -31 -15 -58 -25 -59 -24 -17 22 -826 1860 -826 1877 0 92 113 145 180 85z
m-208 -77 c-2 -20 4 -53 17 -81 12 -26 21 -51 21 -55 0 -5 -96 -64 -212 -131
-644 -372 -642 -371 -678 -371 -69 0 -104 84 -57 136 19 22 174 114 722 428
77 45 149 87 160 94 29 19 31 17 27 -20z m451 -1048 l386 -868 -19 -42 c-11
-24 -20 -51 -20 -60 0 -11 -60 -58 -165 -130 l-166 -113 -72 -1 c-159 -5 -298
-103 -360 -256 -19 -48 -22 -76 -25 -280 l-4 -228 -400 0 c-345 0 -399 2 -395
14 3 8 -14 133 -38 278 -25 145 -45 268 -45 275 0 9 88 13 353 15 l353 3 49
26 c63 32 110 93 124 161 17 79 10 940 -6 946 -10 3 -13 -73 -13 -357 l0 -361
-40 0 -40 0 0 688 c0 438 -4 700 -10 724 -6 20 -24 48 -41 62 -30 26 -32 26
-215 26 -101 0 -184 3 -184 8 0 4 27 22 61 41 l60 33 142 -7 c160 -8 194 -20
237 -82 l25 -36 3 -314 c2 -239 6 -313 15 -310 16 5 23 531 7 603 -13 60 -56
117 -111 144 -32 17 -59 20 -156 20 -89 0 -114 3 -105 12 22 22 417 246 423
240 3 -4 180 -397 392 -874z m-1380 569 l-28 -33 -638 -7 c-706 -8 -685 -6
-713 -72 -11 -28 -14 -109 -14 -421 0 -364 -1 -386 -17 -379 -10 4 -28 10 -41
13 l-23 4 3 398 3 398 31 38 c58 73 72 78 207 85 67 3 378 6 690 7 l569 2 -29
-33z m-33 -84 c0 -10 9 -33 20 -51 11 -18 20 -35 20 -37 0 -3 -308 -5 -685 -5
l-685 0 0 23 c0 33 27 65 63 76 18 5 303 10 650 10 581 1 617 0 617 -16z m779
6 c31 -11 61 -52 61 -84 0 -13 -36 -15 -301 -15 l-300 0 3 22 c2 14 23 32 63
54 l60 34 191 0 c114 0 204 -4 223 -11z m-569 -139 l0 -60 -69 0 -69 0 -4 45
-3 45 45 0 c25 1 56 7 70 15 14 8 26 14 28 15 1 0 2 -27 2 -60z m-172 -24 c2
-27 -1 -36 -12 -36 -27 0 -49 -46 -43 -87 8 -46 19 -53 88 -53 55 0 55 0 55
-30 l0 -30 -203 0 c-229 0 -259 -6 -293 -62 -19 -31 -20 -50 -20 -386 0 -296
2 -358 15 -382 31 -60 31 -60 514 -60 311 0 447 3 465 12 57 25 57 27 57 429
0 326 -2 374 -16 396 -31 46 -67 53 -290 53 l-205 0 0 30 c0 29 1 30 51 30 75
0 89 11 89 71 0 43 -3 51 -25 61 -19 9 -25 19 -25 45 0 19 5 33 13 34 6 1 140
1 297 1 l285 0 3 -671 2 -671 -1085 0 -1085 0 0 195 c0 107 3 195 8 195 4 0
15 -7 25 -15 27 -20 90 -28 131 -17 l36 10 0 -34 c0 -25 9 -44 34 -72 l34 -37
188 -3 c201 -4 230 1 264 46 19 23 20 41 20 271 0 270 -1 276 -60 306 -42 22
-378 22 -420 0 -35 -18 -60 -62 -60 -104 l0 -29 -58 5 c-47 4 -66 1 -100 -16
l-42 -21 0 329 c0 212 4 331 10 333 6 2 313 2 683 2 l672 -2 3 -36z m222 -106
l0 -41 -122 3 c-120 3 -123 4 -126 26 -7 49 -1 52 128 52 l120 0 0 -40z m312
-170 c21 -6 43 -21 49 -33 9 -15 12 -128 13 -380 l0 -359 -27 -24 -28 -24
-442 0 c-332 1 -446 4 -458 13 -37 28 -39 49 -39 404 0 376 1 382 54 403 31
13 833 12 878 0z m-1211 -229 c17 -21 19 -42 19 -260 0 -314 17 -294 -259
-289 l-173 3 -24 28 c-24 28 -24 30 -24 252 0 234 5 264 44 284 13 6 92 9 209
8 185 -2 189 -2 208 -26z m-510 -121 c10 -6 19 -20 19 -30 0 -17 -7 -20 -48
-20 -26 0 -53 -5 -60 -12 -7 -7 -12 -41 -12 -85 0 -83 9 -93 79 -93 34 0 41
-3 41 -20 0 -59 -130 -51 -188 13 -19 20 -22 29 -13 45 14 27 14 95 0 109 -33
33 48 103 119 103 24 0 52 -5 63 -10z m-611 -65 c30 -15 60 -61 60 -89 0 -8
-27 -113 -59 -233 -32 -120 -100 -373 -151 -563 -51 -190 -96 -348 -99 -352
-4 -4 -28 -1 -55 7 -27 8 -76 15 -108 15 -52 0 -59 2 -54 18 3 9 39 144 81
300 196 734 227 846 240 866 32 45 93 58 145 31z m384 -17 c38 -35 39 -86 1
-123 -23 -24 -29 -25 -165 -25 l-141 0 6 45 c6 35 3 53 -14 85 l-21 40 155 0
c146 0 155 -1 179 -22z m246 -63 l0 -65 -44 0 c-43 0 -43 0 -49 39 -2 21 -2
50 0 65 5 23 10 26 49 26 l44 0 0 -65z m-230 -315 l0 -220 -40 0 -40 0 0 208
0 208 33 11 c17 5 35 11 40 12 4 0 7 -98 7 -219z m-108 -132 c3 -322 4 -334
25 -375 12 -22 39 -55 60 -72 69 -57 101 -61 471 -61 312 0 333 -1 330 -18 -2
-9 -23 -140 -48 -289 l-45 -273 -581 0 -581 0 -5 83 c-6 98 -34 160 -97 222
-23 21 -41 44 -41 50 0 5 64 247 142 538 l143 527 112 0 112 0 3 -332z m3496
57 c74 -32 112 -86 112 -163 0 -95 -82 -176 -177 -175 -186 2 -239 257 -69
334 50 23 85 24 134 4z m-1080 -278 c-3 -90 -7 -108 -31 -149 -18 -31 -44 -57
-75 -75 l-47 -28 -1024 -3 c-1133 -3 -1085 -5 -1149 61 -49 50 -62 94 -62 202
l0 95 1196 0 1196 0 -4 -103z m826 39 c9 -24 26 -52 37 -62 19 -18 19 -18 -38
-76 -73 -73 -66 -85 8 -13 l56 54 52 -19 c28 -11 63 -20 77 -20 17 0 24 -5 22
-12 -3 -7 -13 -37 -23 -67 -14 -43 -37 -74 -108 -150 -49 -53 -93 -97 -97 -99
-4 -2 -11 14 -15 35 -19 105 -119 216 -238 264 l-40 16 139 96 c77 52 142 96
145 96 4 1 14 -19 23 -43z m-313 -182 c72 -20 151 -75 195 -135 37 -51 79
-153 69 -170 -4 -5 -70 -9 -151 -9 l-144 0 0 -75 0 -75 -65 0 -65 0 0 75 0 75
-143 0 c-79 0 -146 3 -150 6 -3 3 1 29 10 57 56 193 256 306 444 251z m-1401
-155 c0 -7 20 -131 46 -278 42 -250 44 -266 28 -278 -14 -10 -103 -13 -383
-13 -201 0 -372 4 -380 9 -10 7 -12 22 -6 67 6 53 67 407 81 477 l6 27 304 0
c220 0 304 -3 304 -11z m1211 -236 c2 -108 -7 -98 96 -101 l92 -3 3 78 3 78
132 0 133 0 0 -132 0 -132 -72 -3 c-67 -3 -73 -5 -76 -25 -2 -13 -7 -23 -12
-23 -5 0 -7 7 -4 15 5 12 -5 15 -59 15 -36 0 -69 5 -72 10 -4 6 -88 10 -221
10 l-214 0 0 128 c0 71 3 132 7 135 3 4 64 7 135 7 l128 0 1 -57z m-3324 18
c81 -37 152 -120 178 -208 6 -22 4 -22 -82 -25 -115 -4 -115 -22 0 -26 l87 -3
0 -44 0 -45 -295 0 -295 0 0 45 0 45 156 0 c120 0 155 3 152 13 -4 9 -46 13
-156 15 l-152 3 6 27 c20 81 86 159 169 198 65 31 170 33 232 5z m3519 -288
c-7 -7 -26 7 -26 19 0 6 6 6 15 -2 9 -7 13 -15 11 -17z m-413 10 c-7 -2 -21
-2 -30 0 -10 3 -4 5 12 5 17 0 24 -2 18 -5z m270 0 c-45 -2 -122 -2 -170 0
-48 1 -11 3 82 3 94 0 133 -2 88 -3z m297 -3 c0 -5 -4 -10 -10 -10 -5 0 -10 5
-10 10 0 6 5 10 10 10 6 0 10 -4 10 -10z m3 -57 c-13 -2 -33 -2 -45 0 -13 2
-3 4 22 4 25 0 35 -2 23 -4z"/>
<path d="M5041 4184 c-23 -17 -28 -56 -8 -71 26 -20 47 -21 69 -4 19 16 21 23
13 46 -13 36 -46 48 -74 29z m44 -40 c0 -10 -8 -20 -17 -22 -18 -3 -26 27 -11
42 12 11 28 0 28 -20z"/>
<path d="M5140 3992 c0 -14 131 -297 142 -307 15 -14 8 7 -65 172 -54 124 -77
164 -77 135z"/>
<path d="M5324 3578 c62 -148 390 -875 397 -883 6 -6 9 -6 9 0 0 19 -403 915
-412 915 -4 0 -2 -15 6 -32z"/>
<path d="M4660 3969 c-64 -37 -65 -37 -58 -44 6 -6 128 62 128 70 0 10 -17 4
-70 -26z"/>
<path d="M4505 3881 c-6 -5 -71 -44 -145 -86 -151 -87 -145 -83 -138 -90 6 -7
308 167 308 177 0 11 -14 10 -25 -1z"/>
<path d="M4064 3649 c-20 -22 -13 -43 19 -63 36 -23 75 36 47 70 -17 20 -44
17 -66 -7z m51 -19 c3 -6 -1 -13 -10 -16 -19 -8 -30 0 -20 15 8 14 22 14 30 1z"/>
<path d="M2798 3563 c29 -2 74 -2 100 0 26 2 2 3 -53 3 -55 0 -76 -1 -47 -3z"/>
<path d="M2983 3563 c9 -2 25 -2 35 0 9 3 1 5 -18 5 -19 0 -27 -2 -17 -5z"/>
<path d="M2123 2689 c-27 -10 -40 -53 -23 -74 16 -19 64 -19 80 -1 29 36 -13
92 -57 75z m36 -33 c9 -10 8 -16 -4 -26 -19 -16 -41 1 -32 24 8 20 21 20 36 2z"/>
<path d="M2074 2465 c-3 -14 -23 -87 -44 -162 -20 -76 -35 -140 -34 -142 10
-11 15 7 94 297 5 19 5 32 -1 32 -5 0 -11 -11 -15 -25z"/>
<path d="M1967 2065 c-3 -11 -31 -112 -62 -224 -48 -176 -58 -229 -41 -210 9
10 117 430 113 441 -2 8 -6 5 -10 -7z"/>
<path d="M2470 2701 c-15 -29 -13 -39 14 -56 31 -21 66 -5 66 28 0 46 -59 66
-80 28z m53 -26 c1 -5 -6 -11 -15 -13 -11 -2 -18 3 -18 13 0 17 30 18 33 0z"/>
<path d="M2320 2670 c0 -5 23 -10 50 -10 28 0 50 5 50 10 0 6 -22 10 -50 10
-27 0 -50 -4 -50 -10z"/>
<path d="M2174 1481 c20 -27 46 -71 58 -98 12 -26 23 -43 25 -36 9 25 -85 183
-109 183 -5 0 6 -22 26 -49z"/>
<path d="M5885 2175 c-46 -45 -22 -105 42 -105 61 0 85 71 37 109 -34 27 -50
26 -79 -4z m63 -17 c30 -30 -4 -77 -41 -57 -21 12 -22 33 -1 53 19 19 26 20
42 4z"/>
<path d="M2610 1943 c0 -26 48 -93 66 -93 12 0 7 10 -15 35 -17 20 -31 42 -31
50 0 7 -4 17 -10 20 -5 3 -10 -2 -10 -12z"/>
<path d="M5431 1786 c21 -21 109 -74 109 -66 0 11 -87 70 -104 70 -5 0 -7 -2
-5 -4z"/>
<path d="M3706 1463 c26 -32 49 -60 51 -62 2 -2 6 -1 9 2 8 8 -83 117 -98 117
-6 0 11 -26 38 -57z"/>
<path d="M3730 1512 c0 -11 22 -32 32 -32 5 0 4 9 -2 20 -11 20 -30 28 -30 12z"/>
<path d="M3650 1465 c1 -17 49 -70 57 -62 4 4 -7 22 -25 40 -18 17 -32 27 -32
22z"/>
<path d="M1933 1405 c15 -14 33 -25 40 -25 7 1 -1 12 -18 25 -39 32 -58 32
-22 0z"/>
<path d="M6220 2345 c1 -15 61 -78 68 -71 3 4 -11 23 -31 44 -20 20 -37 32
-37 27z"/>
<path d="M6310 2150 c-1 -85 -19 -136 -69 -189 -37 -39 -33 -56 5 -20 60 56
101 196 76 259 -9 20 -11 11 -12 -50z"/>
<path d="M985 1130 c-3 -5 0 -13 8 -15 24 -10 202 -1 202 10 0 14 -201 19
-210 5z"/>
<path d="M6190 1130 c0 -6 43 -10 110 -10 67 0 110 4 110 10 0 6 -43 10 -110
10 -67 0 -110 -4 -110 -10z"/>
</g>
</svg>
