<?xml version="1.0" encoding="utf-8"?>
<!-- Generator: Adobe Illustrator 27.5.0, SVG Export Plug-In . SVG Version: 6.00 Build 0)  -->
<svg version="1.1" id="Layer_1" xmlns="http://www.w3.org/2000/svg" xmlns:xlink="http://www.w3.org/1999/xlink" x="0px" y="0px"
	 viewBox="0 0 5000 5000" style="enable-background:new 0 0 5000 5000;" xml:space="preserve">
<rect style="fill:#C2EDF2;" width="5000" height="4533"/>
<g>
	<g>
		<path style="fill:#050505;" d="M4677.466,3959.293c0,68.29-59.656,122.937-132.751,122.937H1589.386
			c-73.095,0-133.149-54.647-133.149-122.937V2065.01c0-68.29,60.055-123.786,133.149-123.786h2955.329
			c73.095,0,132.751,55.496,132.751,123.786V3959.293z"/>
		
			<ellipse transform="matrix(0.9239 -0.3827 0.3827 0.9239 -1279.1353 1474.5409)" style="fill:#E2E2F7;" cx="3066.944" cy="3952.596" rx="64.861" ry="64.861"/>
		<g>
			<path style="fill:#E2E2F7;" d="M4430.78,2113.393H1741.3c-73.095,0-132.332,51.432-132.332,114.496v1501.248
				c0,5.192,1.097,10.283,1.857,15.274l2890.187-1613.329C4480.481,2120.115,4456.607,2113.393,4430.78,2113.393z"/>
			<path style="fill:#D9D9E8;" d="M4501.083,2131.452L1611.361,3743.808c8.485,55.618,62.863,96.831,129.939,96.831h2689.48
				c73.095,0,132.833-48.437,132.833-111.501V2227.889C4563.612,2187.108,4538.656,2151.523,4501.083,2131.452z"/>
		</g>
	</g>
	<polygon style="fill:#050505;" points="3609.607,4476.553 2586.725,4482.265 2823.808,4082.23 3367.07,4082.23 	"/>
	<rect x="2289.314" y="4476.553" style="fill:#050505;" width="1616.168" height="69.423"/>
</g>
<rect x="1878" y="2550" style="fill:#FEC524;" width="1884" height="436"/>
<rect x="1878" y="2288" style="fill:#28AFF9;" width="747" height="206"/>
<g>
	<path style="fill:#3D3223;" d="M3665.998,2367.529c-1.19,0-2.399-0.213-3.577-0.665l-562.238-104.727
		c-5.157-1.977-7.735-7.76-5.759-12.917c1.977-5.157,7.762-7.736,12.917-5.758l562.238,104.727
		c5.157,1.977,7.735,7.759,5.759,12.917C3673.813,2365.085,3670.02,2367.529,3665.998,2367.529z"/>
	<path style="fill:#3D3223;" d="M2197.688,1476.297c-106.583,0-219.123-15.77-336.409-47.236
		c-162.399-43.57-304.044-109.816-394.273-157.717c-97.814-51.928-158.173-94.218-158.771-94.64l11.511-16.355
		c0.591,0.416,60.226,42.18,157.125,93.588c89.333,47.395,229.528,112.922,390.106,155.944
		c282.388,75.658,683.651,94.556,991.616-245.072l14.816,13.435c-72.656,80.126-154.229,145.018-242.455,192.872
		c-80.247,43.526-167.756,73.919-260.095,90.335C2315.162,1471.351,2257.352,1476.297,2197.688,1476.297z"/>
	<rect x="2987" y="1272.527" style="fill:#3D3223;" width="20" height="538"/>
	<rect x="3130" y="1272.527" style="fill:#3D3223;" width="20" height="538"/>
	<path style="fill:#3D3223;" d="M2313.344,922.529c-1.385,0-2.791-0.289-4.133-0.899L1078.361,361.963
		c-5.027-2.286-7.25-8.215-4.964-13.242c2.286-5.028,8.216-7.25,13.242-4.964l1230.849,559.667c5.028,2.286,7.25,8.215,4.964,13.242
		C2320.777,920.351,2317.144,922.529,2313.344,922.529z"/>
	<path style="fill:#3D3223;" d="M271.008,922.527c-3.05,0-6.061-1.39-8.025-4.023c-3.301-4.428-2.388-10.693,2.04-13.994
		l750.667-559.667c4.427-3.301,10.692-2.388,13.994,2.04c3.301,4.428,2.388,10.693-2.04,13.994L276.977,920.544
		C275.183,921.882,273.087,922.527,271.008,922.527z"/>
	
		<ellipse transform="matrix(0.7071 -0.7071 0.7071 0.7071 31.7007 861.0362)" style="fill:#DB9A16;" cx="1055.213" cy="392.252" rx="61.213" ry="61.213"/>
	<rect x="397" y="802.527" style="fill:#3D3C3C;" width="152" height="470"/>
	
		<ellipse transform="matrix(0.1602 -0.9871 0.9871 0.1602 498.986 1371.174)" style="fill:#595858;" cx="1055.304" cy="392.343" rx="42.304" ry="42.304"/>
	<rect x="564" y="802.527" style="fill:#3D3C3C;" width="152" height="470"/>
	<polygon style="fill:#FEC524;" points="1254,1163.527 935,1163.527 935,803.527 1254,803.527 1313.991,983.527 	"/>
	<path style="fill:#637B84;" d="M1212.166,803.527H978v-405h148.098L1212.166,803.527z M998,783.527h189.469l-77.567-365H998
		V783.527z"/>
	<path style="fill:#637B84;" d="M1171.449,803.307l-180.663-61.31c-4.635-1.573-7.45-6.27-6.653-11.098
		c0.797-4.829,4.972-8.372,9.867-8.372h134.288l-139.179-58.788c-4.383-1.851-6.854-6.534-5.91-11.197
		c0.944-4.663,5.043-8.015,9.801-8.015h125.388L991.606,582.51c-4.181-2.045-6.398-6.704-5.348-11.238
		c1.049-4.534,5.088-7.745,9.742-7.745h113.784l-118.121-74.543c-3.766-2.377-5.506-6.957-4.27-11.235
		c1.237-4.278,5.153-7.222,9.606-7.222h86.255l-100.143-52.742l9.32-17.696l135.929,71.59c4.068,2.143,6.151,6.784,5.047,11.248
		c-1.104,4.464-5.109,7.6-9.708,7.6h-92.118l118.121,74.544c3.766,2.376,5.506,6.956,4.27,11.234
		c-1.237,4.278-5.153,7.222-9.606,7.222h-105.167l126.782,62.017c4.181,2.045,6.398,6.704,5.348,11.238
		c-1.049,4.534-5.088,7.745-9.742,7.745h-119.214l139.179,58.788c4.383,1.851,6.854,6.534,5.91,11.197
		c-0.945,4.663-5.044,8.015-9.801,8.015h-123.078l123.292,41.84L1171.449,803.307z"/>
	
		<rect x="2476.677" y="1019.713" transform="matrix(0.4487 -0.8937 0.8937 0.4487 520.7283 2903.551)" style="fill:#637B84;" width="274.169" height="19.999"/>
	
		<rect x="2728.134" y="892.3" transform="matrix(0.8936 -0.4488 0.4488 0.8936 -172.0622 1338.8131)" style="fill:#637B84;" width="20.001" height="280.128"/>
	
		<rect x="2725.677" y="1024.713" transform="matrix(0.4487 -0.8937 0.8937 0.4487 653.5333 3128.8345)" style="fill:#637B84;" width="274.169" height="19.999"/>
	
		<rect x="2977.134" y="897.3" transform="matrix(0.8936 -0.4488 0.4488 0.8936 -147.8159 1451.1061)" style="fill:#637B84;" width="20.001" height="280.128"/>
	
		<rect x="2974.677" y="1024.713" transform="matrix(0.4487 -0.8937 0.8937 0.4487 790.8068 3351.3611)" style="fill:#637B84;" width="274.169" height="19.999"/>
	
		<rect x="3226.134" y="897.3" transform="matrix(0.8936 -0.4488 0.4488 0.8936 -121.3254 1562.8671)" style="fill:#637B84;" width="20.001" height="280.128"/>
	
		<rect x="3223.677" y="1024.713" transform="matrix(0.4487 -0.8937 0.8937 0.4487 928.0803 3573.8879)" style="fill:#637B84;" width="274.169" height="19.999"/>
	
		<rect x="2227.677" y="1020.713" transform="matrix(0.4487 -0.8937 0.8937 0.4487 382.5981 2681.6199)" style="fill:#637B84;" width="274.169" height="20"/>
	
		<rect x="2479.134" y="893.3" transform="matrix(0.8936 -0.4488 0.4488 0.8936 -199.0016 1227.1584)" style="fill:#637B84;" width="20" height="280.128"/>
	
		<rect x="1978.677" y="1022.713" transform="matrix(0.4487 -0.8937 0.8937 0.4487 243.5323 2460.1931)" style="fill:#637B84;" width="274.169" height="20"/>
	
		<rect x="2230.134" y="895.3" transform="matrix(0.8936 -0.4488 0.4488 0.8936 -226.3896 1115.6141)" style="fill:#637B84;" width="20" height="280.128"/>
	
		<rect x="1729.677" y="1019.713" transform="matrix(0.4487 -0.8937 0.8937 0.4487 108.9349 2236.01)" style="fill:#637B84;" width="274.169" height="20"/>
	
		<rect x="1981.134" y="892.3" transform="matrix(0.8936 -0.4488 0.4488 0.8936 -251.5338 1003.5336)" style="fill:#637B84;" width="20" height="280.128"/>
	
		<rect x="1473.256" y="1023.494" transform="matrix(0.4498 -0.8931 0.8931 0.4498 -34.6675 2010.7123)" style="fill:#637B84;" width="282.811" height="20"/>
	
		<rect x="1731.134" y="892.3" transform="matrix(0.8936 -0.4488 0.4488 0.8936 -278.1309 891.3234)" style="fill:#637B84;" width="20" height="280.128"/>
	
		<rect x="1213.508" y="1024.864" transform="matrix(0.4441 -0.896 0.896 0.4441 -173.4042 1790.248)" style="fill:#637B84;" width="284.967" height="20"/>
	
		<rect x="1472.134" y="892.3" transform="matrix(0.8936 -0.4488 0.4488 0.8936 -305.6854 775.0736)" style="fill:#637B84;" width="20" height="280.128"/>
	<rect x="1411" y="902.364" style="fill:#637B84;" width="2256.268" height="20"/>
	<path style="fill:#637B84;" d="M3793,1172.527H271c-5.523,0-10-4.477-10-10v-250c0-5.521,4.474-9.997,9.994-10l542.933-0.326
		l0.012,20L281,922.521v230.006h3254.414l122.917-244.813c1.696-3.38,5.154-5.513,8.936-5.513c3.781,0,7.24,2.133,8.938,5.512
		l125.731,250.325c1.558,3.1,1.396,6.786-0.424,9.738C3799.691,1170.729,3796.469,1172.527,3793,1172.527z M3557.793,1152.527
		h218.994L3667.27,934.484L3557.793,1152.527z"/>
	
		<rect x="604.677" y="1024.713" transform="matrix(0.4487 -0.8937 0.8937 0.4487 -515.7675 1233.3629)" style="fill:#637B84;" width="274.169" height="20"/>
	
		<rect x="856.134" y="897.3" transform="matrix(0.8936 -0.4488 0.4488 0.8936 -373.4648 499.1196)" style="fill:#637B84;" width="20" height="280.128"/>
	
		<rect x="342.677" y="1024.713" transform="matrix(0.4487 -0.8937 0.8937 0.4487 -660.2131 999.2157)" style="fill:#637B84;" width="274.169" height="20"/>
	
		<rect x="594.134" y="897.3" transform="matrix(0.8936 -0.4488 0.4488 0.8936 -401.3385 381.5233)" style="fill:#637B84;" width="20" height="280.128"/>
	
		<rect x="336.36" y="898.728" transform="matrix(0.9006 -0.4346 0.4346 0.9006 -416.4542 253.601)" style="fill:#637B84;" width="20" height="277.59"/>
	<path style="fill:#637B84;" d="M1207,4384.527H958c-5.523,0-10-4.478-10-10v-3102c0-5.523,4.477-10,10-10h249
		c5.523,0,10,4.477,10,10v3102C1217,4380.049,1212.523,4384.527,1207,4384.527z M968,4364.527h229v-3082H968V4364.527z"/>
	<path style="fill:#637B84;" d="M1202.658,1527.27l-249-120.012c-3.429-1.653-5.623-5.109-5.658-8.916
		c-0.035-3.807,2.094-7.303,5.492-9.019l249-125.723l9.015,17.854L980.6,1398.041l230.742,111.212L1202.658,1527.27z"/>
	<path style="fill:#637B84;" d="M1202.658,1773.27l-249-120.012c-3.429-1.653-5.623-5.109-5.658-8.916
		c-0.035-3.807,2.094-7.303,5.492-9.019l249-125.723l9.015,17.854L980.6,1644.041l230.742,111.212L1202.658,1773.27z"/>
	<path style="fill:#637B84;" d="M1202.658,2019.27l-249-120.012c-3.429-1.653-5.623-5.109-5.658-8.916
		c-0.035-3.807,2.094-7.303,5.492-9.019l249-125.723l9.015,17.854L980.6,1890.041l230.742,111.212L1202.658,2019.27z"/>
	<path style="fill:#637B84;" d="M1202.658,2265.27l-249-120.012c-3.429-1.653-5.623-5.109-5.658-8.916
		c-0.035-3.807,2.094-7.303,5.492-9.019l249-125.723l9.015,17.854L980.6,2136.042l230.742,111.212L1202.658,2265.27z"/>
	<path style="fill:#637B84;" d="M1202.658,2511.27l-249-120.012c-3.429-1.653-5.623-5.109-5.658-8.916
		c-0.035-3.807,2.094-7.303,5.492-9.019l249-125.723l9.015,17.854L980.6,2382.042l230.742,111.212L1202.658,2511.27z"/>
	<path style="fill:#637B84;" d="M1202.658,2757.27l-249-120.013c-3.429-1.652-5.623-5.109-5.658-8.916
		c-0.035-3.807,2.094-7.303,5.492-9.019l249-125.723l9.015,17.854L980.6,2628.042l230.742,111.213L1202.658,2757.27z"/>
	<path style="fill:#637B84;" d="M1202.658,3003.27l-249-120.013c-3.429-1.652-5.623-5.109-5.658-8.916
		c-0.035-3.807,2.094-7.303,5.492-9.019l249-125.723l9.015,17.854L980.6,2874.042l230.742,111.213L1202.658,3003.27z"/>
	
		<rect x="943.031" y="3047.388" transform="matrix(0.8927 -0.4507 0.4507 0.8927 -1261.8441 816.0764)" style="fill:#637B84;" width="278.939" height="20"/>
	<path style="fill:#637B84;" d="M1206.658,3507.27l-249-120.013c-3.429-1.652-5.623-5.109-5.658-8.916
		c-0.035-3.807,2.094-7.303,5.492-9.019l249-125.723l9.015,17.854L984.6,3378.042l230.742,111.213L1206.658,3507.27z"/>
	<path style="fill:#637B84;" d="M1206.658,3753.27l-249-120.013c-3.429-1.652-5.623-5.109-5.658-8.916
		c-0.035-3.807,2.094-7.303,5.492-9.019l249-125.723l9.015,17.854L984.6,3624.042l230.742,111.213L1206.658,3753.27z"/>
	<path style="fill:#637B84;" d="M1206.658,3999.27l-249-120.013c-3.429-1.652-5.623-5.109-5.658-8.916
		c-0.035-3.807,2.094-7.303,5.492-9.019l249-125.723l9.015,17.854L984.6,3870.042l230.742,111.213L1206.658,3999.27z"/>
	<path style="fill:#637B84;" d="M1206.734,4245.571l-255-120.277c-3.457-1.63-5.682-5.088-5.733-8.91
		c-0.051-3.821,2.08-7.338,5.492-9.061l249-125.723l9.015,17.854l-230.715,116.49l236.474,111.539L1206.734,4245.571z"/>
	
		<rect x="947.031" y="4289.388" transform="matrix(0.8927 -0.4507 0.4507 0.8927 -1821.2129 951.1908)" style="fill:#637B84;" width="278.939" height="20"/>
	
		<rect x="1076.5" y="3051.918" transform="matrix(0.4507 -0.8927 0.8927 0.4507 -2252.0505 2722.8596)" style="fill:#637B84;" width="20" height="278.939"/>
	<rect x="892" y="1171.527" style="fill:#3D3C3C;" width="202" height="101"/>
	<rect x="1094" y="1171.527" style="fill:#595858;" width="202" height="101"/>
	<rect x="811" y="4383.527" style="fill:#3D3C3C;" width="274" height="149"/>
	<rect x="1083" y="4383.527" style="fill:#595858;" width="274" height="149"/>
	<rect x="2866" y="1171.527" style="fill:#3D3C3C;" width="404" height="101"/>
	<polygon style="fill:#3AADDB;" points="1249.489,1065.527 1055,1065.527 1055,844.527 1228,844.527 1273.775,978.551 	"/>
	
		<ellipse transform="matrix(0.1602 -0.9871 0.9871 0.1602 800.6807 4540.1323)" style="fill:#DB9A16;" cx="3068.483" cy="1799.522" rx="82.483" ry="82.483"/>
	<circle style="fill:#595858;" cx="3068.606" cy="1799.645" r="57.003"/>
	<path style="fill:#FEC524;" d="M3123,2025.527c0,8.284-6.716,15-15,15h-81c-8.284,0-15-6.716-15-15l-26-129c0-8.284,6.716-15,15-15
		h135c8.284,0,15,6.716,15,15L3123,2025.527z"/>
	<path style="fill:#595858;" d="M3049,2040.527v35c0,0-2.806,31.695,19.5,35.028c16.889,2.524,55.696,1.252,74.471,26.286
		c18.776,25.034,12.078,60.442,0,83.865c-10.578,20.514-31.408,41.091-74.471,37.552c-45.694-3.755-73.232-27.538-74.484-46.314
		c0,0,0,58.646,74.484,72.6c61.49,11.52,91.592-8.777,108.268-33.797c18.367-27.557,27.541-48.803,24.255-91.179
		c-2.392-30.834-17.921-65.126-57.58-81.635c-36.925-15.37-45.442-11.273-45.442-11.273v-26.134H3049z"/>
	<polygon points="2995.016,1941.018 2990.547,1918.724 3033.333,1881.527 3064.333,1881.527 	"/>
	<polygon points="3003.876,1984.979 2999.381,1962.559 3093.667,1881.527 3124.333,1881.527 	"/>
	<polygon points="3054.333,2040.527 3023.847,2040.527 3141.943,1938.421 3134.896,1970.972 	"/>
	<path d="M3013.657,2032.377l-4.989-23.383l136.406-124.41c0,0,2.409,0.283,5.036,6.843c2.627,6.56-1.663,16.863-1.663,16.863
		L3013.657,2032.377z"/>
	<rect x="1054" y="1272.527" style="fill:#637B84;" width="20" height="3090"/>
	<rect x="1106" y="1272.527" style="fill:#637B84;" width="20" height="3090"/>
	<polygon points="3082.895,2040.527 3127.444,2005.054 3122.874,2027.448 3108,2040.527 	"/>
	
		<rect x="3471.965" y="897.3" transform="matrix(0.8936 -0.4488 0.4488 0.8936 -95.172 1673.2059)" style="fill:#637B84;" width="20.001" height="280.128"/>
	<rect x="2532" y="2365.527" style="fill:#FC4427;" width="1143" height="369.837"/>
	<path style="fill:#3D3223;" d="M2540.005,2369.529c-3.867,0-7.549-2.256-9.183-6.031c-2.193-5.068,0.138-10.956,5.206-13.149
		l557.849-108.991c5.068-2.195,10.955,0.137,13.149,5.206c2.193,5.068-0.138,10.956-5.206,13.149l-557.849,108.991
		C2542.678,2369.264,2541.33,2369.529,2540.005,2369.529z"/>
</g>
<rect x="1878" y="3057" style="fill:#28AFF9;" width="570" height="375"/>
<path style="fill:#6A767C;" d="M3746.266,3441H3656v-16h90.266c4.192,0,7.734-2.748,7.734-6l16-0.062V3419
	C3770,3431.131,3759.353,3441,3746.266,3441z M3630,3441h-114v-16h114V3441z M3490,3441h-114v-16h114V3441z M3351,3441h-114v-16h114
	V3441z M3211,3441h-114v-16h114V3441z M3072,3441h-114v-16h114V3441z M2932,3441h-114v-16h114V3441z M2793,3441h-115v-16h115V3441z
	 M2653,3441h-114v-16h114V3441z M2511.26,3422.262c-0.173-1.072-0.26-2.17-0.26-3.262v-112h16v112c0,0.245,0.02,0.488,0.057,0.723
	L2511.26,3422.262z M3770,3393h-16v-114h16V3393z M2527,3281h-16v-114h16V3281z M3770,3254h-16v-114h16V3254z M2527,3142h-16v-70
	c0-12.131,10.647-22,23.734-22H2556v16h-21.266c-4.192,0-7.734,2.748-7.734,6V3142z M3770,3114h-16v-42c0-3.252-3.542-6-7.734-6
	H3698v-16h48.266c13.087,0,23.734,9.869,23.734,22V3114z M3672,3066h-114v-16h114V3066z M3533,3066h-114v-16h114V3066z M3393,3066
	h-114v-16h114V3066z M3254,3066h-115v-16h115V3066z M3114,3066h-114v-16h114V3066z M2974,3066h-114v-16h114V3066z M2835,3066h-114
	v-16h114V3066z M2695,3066h-114v-16h114V3066z"/>
<rect x="3854" y="2550" style="fill:#FC4427;" width="546" height="882"/>
<rect x="1878" y="3507" style="fill:#6A767C;" width="2522" height="52"/>
<rect x="1878" y="3588" style="fill:#6A767C;" width="2522" height="52"/>
<rect x="1878" y="3663" style="fill:#6A767C;" width="2522" height="52"/>
<rect y="4533" style="fill:#508DA5;" width="5000" height="467"/>
</svg>
